<svg xmlns="http://www.w3.org/2000/svg" width="1200" height="630" viewBox="0 0 7268 5052">
  <rect width="100%" height="100%" fill="#000"/>

  <!-- CODE AND THEORY text -->
  <text x="200" y="350" fill="#FFFFFF" font-family="Georgia, 'Times New Roman', serif" font-size="180" font-weight="400" letter-spacing="0.12em">CODE AND THEORY</text>

  <!-- BOWL letters (white) -->
  <svg x="200" y="700" width="1300" height="2900" viewBox="0 0 70 165" preserveAspectRatio="none">
    <path d="M0 0H46.033V32.836H23.017V65.672H46.033V98.508H23.017V131.343H46.033V164.179H0V0ZM46.033 32.836H69.05V65.672H46.033V32.836ZM46.033 98.508H69.05V131.343H46.033V98.508ZM57.542 49.254L34.525 82.09L23.017 65.672L46.033 32.836L57.542 49.254ZM23.017 32.836L34.525 16.418L57.542 49.254L46.033 65.672L23.017 32.836ZM69.05 98.508L57.542 114.926L34.525 82.09L46.033 65.672L69.05 98.508ZM57.542 114.926L34.525 147.761L23.017 131.343L46.033 98.508L57.542 114.926Z" fill="#FFFFFF"/>
  </svg>

  <svg x="1500" y="700" width="1300" height="3800" viewBox="0 0 70 280" preserveAspectRatio="none">
    <path d="M46.033 55.844H69.05V223.375H46.033L46.033 55.844ZM23.017 223.375H46.033V279.219H23.017V223.375ZM0 55.844H23.017L23.017 223.375H0L0 55.844ZM23.017 0H46.033V55.844H23.017V0ZM11.508 83.766L34.525 27.922L46.033 55.844L23.017 111.687L11.508 83.766ZM46.033 223.375L34.525 251.297L11.508 195.453L23.017 167.531L46.033 223.375ZM57.542 195.453L34.525 251.297L23.017 223.375L46.033 167.531L57.542 195.453ZM23.017 55.844L34.525 27.922L57.542 83.766L46.033 111.687L23.017 55.844Z" fill="#FFFFFF"/>
  </svg>

  <svg x="2800" y="700" width="2200" height="3500" viewBox="0 0 121 206" preserveAspectRatio="none">
    <path d="M72.29 164.463V205.579H48.193V164.463L48.193 0H72.29V164.463ZM24.097 164.463H48.193V205.579H24.097L24.097 164.463ZM72.29 164.463H96.387V205.579H72.29V164.463ZM96.387 0H120.483L120.483 124.51H96.387V0ZM72.29 124.51H96.387V164.463H72.29V124.51ZM108.435 103.952L84.338 145.068L72.29 124.51L96.387 83.394L108.435 103.952ZM0 124.51L0 0H24.097L24.097 124.51H0ZM24.097 164.463L24.097 124.51H48.193V164.463H24.097ZM48.193 124.51L36.145 145.068L12.048 103.952L24.097 83.394L48.193 124.51Z" fill="#FFFFFF"/>
  </svg>

  <svg x="5000" y="700" width="1150" height="3900" viewBox="0 0 62 292" preserveAspectRatio="none">
    <path d="M29.175 233.261H61.783L61.783 291.577H29.175L29.175 233.261ZM0 0H29.175L29.175 291.577H0L0 0Z" fill="#FFFFFF"/>
  </svg>

  <!-- theory letters (red) -->
  <svg x="200" y="2300" width="1300" height="2700" viewBox="0 0 70 347" preserveAspectRatio="none">
    <path d="M23.017 69.282H0V0H69.05V69.282H46.033V346.408H23.017V69.282Z" fill="#FF1100"/>
  </svg>

  <svg x="1500" y="3400" width="1300" height="1600" viewBox="0 0 70 232" preserveAspectRatio="none">
    <path d="M23.017 92.593H46.033V138.889H23.017V92.593ZM0 0H23.017V231.481H0V0ZM46.033 0H69.05V231.481H46.033V0Z" fill="#FF1100"/>
  </svg>

  <svg x="2800" y="2700" width="900" height="2300" viewBox="0 0 49 306" preserveAspectRatio="none">
    <path d="M23.017 0H48.741V61.165H23.017V0ZM23.017 244.658H48.741V305.823H23.017V244.658ZM23.017 122.329H48.741V183.494H23.017V122.329ZM0 0H23.017V305.823H0V0Z" fill="#FF1100"/>
  </svg>

  <svg x="3700" y="2700" width="1300" height="2300" viewBox="0 0 70 306" preserveAspectRatio="none">
    <path d="M46.033 61.165H69.05V244.658H46.033V61.165ZM23.017 244.658H46.033V305.823H23.017V244.658ZM0 61.165H23.017V244.658H0V61.165ZM23.017 0H46.033V61.165H23.017V0ZM11.508 91.747L34.525 30.582L46.033 61.165L23.017 122.329L11.508 91.747ZM46.033 244.658L34.525 275.241L11.508 214.076L23.017 183.494L46.033 244.658ZM57.542 214.076L34.525 275.241L23.017 244.658L46.033 183.494L57.542 214.076ZM23.017 61.165L34.525 30.582L57.542 91.747L46.033 122.329L23.017 61.165Z" fill="#FF1100"/>
  </svg>

  <svg x="5000" y="3500" width="1150" height="1500" viewBox="0 0 62 221" preserveAspectRatio="none">
    <path d="M40.965 176.036H20.482V132.027H40.965H61.447V220.045H40.965V176.036ZM0 0H40.965V44.009H20.482V88.018H40.965V132.027H20.482V220.045H0V0ZM40.965 44.009H61.447V88.018H40.965V44.009ZM51.206 66.013L30.724 110.023L20.482 88.018L40.965 44.009L51.206 66.013ZM20.482 44.009L30.724 22.005L51.206 66.013L40.965 88.018L20.482 44.009Z" fill="#FF1100"/>
  </svg>

  <svg x="6150" y="3000" width="1000" height="1900" viewBox="0 0 70 281" preserveAspectRatio="none">
    <path d="M23.017 112.115H46.033V280.289H23.017V112.115ZM0 0H23.017V112.115H0V0ZM46.033 0H69.05V112.115H46.033V0ZM46.033 112.115L34.525 140.144L11.508 84.087L23.017 56.058L46.033 112.115ZM57.542 84.087L34.525 140.144L23.017 112.115L46.033 56.058L57.542 84.087Z" fill="#FF1100"/>
  </svg>

  <!-- "and" badge -->
  <circle cx="6400" cy="1100" r="280" fill="#FFFFFF"/>
  <text x="6400" y="1130" text-anchor="middle" fill="#010101" font-family="Inter, system-ui, sans-serif" font-size="160" font-weight="600">and</text>
</svg>
